<?xml version="1.0" encoding="UTF-8"?>
<svg width="497px" height="130px" viewBox="0 0 497 130" version="1.1" xmlns="http://www.w3.org/2000/svg" xmlns:xlink="http://www.w3.org/1999/xlink">
    <!-- Generator: Sketch 59 (86127) - https://sketch.com -->
    <title>Group</title>
    <desc>Created with Sketch.</desc>
    <g id="Page-1" stroke="none" stroke-width="1" fill="none" fill-rule="evenodd">
        <g id="Artboard" transform="translate(-4.000000, -16.000000)">
            <g id="Group">
                <text id="ICConfetti" font-family="Desyrel" font-size="108" font-weight="normal" letter-spacing="2.7" fill="#202020">
                    <tspan x="0.426" y="95">ICConfetti</tspan>
                </text>
                <path d="M19.5,136 C26.4035594,136 32,130.403559 32,123.5 C32,116.596441 26.4035594,111 19.5,111 C12.5964406,111 7,116.596441 7,123.5 C7,126.703971 11.7113098,126.44571 14,129 C16.2886902,131.55429 15.8004111,136 19.5,136 Z" id="Oval" fill="#F5B1A3"></path>
                <path d="M360.5,122 C364.642136,122 368,118.642136 368,114.5 C368,110.357864 364.642136,107 360.5,107 C356.357864,107 353,110.357864 353,114.5 C353,116.422382 355.826786,116.267426 357.2,117.8 C358.573214,119.332574 358.280247,122 360.5,122 Z" id="Oval-Copy-7" fill="#F5B1A3"></path>
                <circle id="Oval" fill="#AC89E0" transform="translate(406.500000, 107.500000) scale(1, -1) translate(-406.500000, -107.500000) " cx="406.5" cy="107.5" r="3.5"></circle>
                <circle id="Oval-Copy" fill="#E977AD" cx="285.5" cy="124.5" r="3.5"></circle>
                <circle id="Oval-Copy-2" fill="#E977AD" cx="232.5" cy="38.5" r="7.5"></circle>
                <circle id="Oval-Copy-3" fill="#AC89E0" cx="198" cy="127" r="6"></circle>
                <circle id="Oval-Copy-4" fill="#AC89E0" cx="89" cy="116" r="5"></circle>
                <path d="M121,146 C126.246705,146 131,137.246705 131,132 C131,126.753295 125.746705,117 120.5,117 C115.253295,117 108,126.753295 108,132 C108,137.246705 115.753295,146 121,146 Z" id="Oval" fill="#E977AD"></path>
                <path d="M454.608696,126 C458.486695,126 462,119.661407 462,115.862069 C462,112.062731 458.11713,105 454.23913,105 C450.361131,105 445,112.062731 445,115.862069 C445,119.661407 450.730696,126 454.608696,126 Z" id="Oval-Copy-5" fill="#E977AD" transform="translate(453.500000, 115.500000) rotate(88.000000) translate(-453.500000, -115.500000) "></path>
                <path d="M252.043478,124 C255.69336,124 259,117.963245 259,114.344828 C259,110.72641 255.345534,104 251.695652,104 C248.04577,104 243,110.72641 243,114.344828 C243,117.963245 248.393596,124 252.043478,124 Z" id="Oval-Copy-6" fill="#05DCBF" transform="translate(251.000000, 114.000000) rotate(20.000000) translate(-251.000000, -114.000000) "></path>
                <path d="M147.482362,117.761194 C149.615258,118.089552 150.841673,118.089552 151.161607,117.761194 C151.328172,117.590244 151.328172,116.222085 151.161607,113.656716 C151.694831,113.218905 152.068088,113 152.281378,113 C152.867924,113 153.294503,113.218905 153.561115,113.656716 C153.134536,116.174129 153.134536,117.542289 153.561115,117.761194 C153.987694,117.9801 155.534044,117.9801 158.200164,117.761194 C158.733388,118.089552 159,118.472637 159,118.910448 C159,119.293532 158.733388,119.731343 158.200164,120.223881 C155.21411,120.004975 153.66776,120.004975 153.561115,120.223881 C153.134536,120.661692 153.134536,121.756219 153.561115,123.507463 C153.130068,123.835821 152.703489,124 152.281378,124 C151.903653,124 151.530396,123.835821 151.161607,123.507463 C151.335827,121.497214 151.335827,120.402687 151.161607,120.223881 C150.948318,120.004975 149.775225,120.004975 147.642329,120.223881 C147.244467,119.790361 147.031177,119.35255 147.00246,118.910448 C146.977855,118.531655 147.137822,118.14857 147.482362,117.761194 Z" id="Path" fill="#05DCBF"></path>
                <path d="M317.643149,102.492537 C320.48701,102.940299 322.12223,102.940299 322.54881,102.492537 C322.770896,102.259423 322.770896,100.393752 322.54881,96.8955224 C323.259775,96.2985075 323.757451,96 324.041837,96 C324.823899,96 325.392671,96.2985075 325.748154,96.8955224 C325.179381,100.328358 325.179381,102.19403 325.748154,102.492537 C326.316926,102.791045 328.378725,102.791045 331.933552,102.492537 C332.644517,102.940299 333,103.462687 333,104.059701 C333,104.58209 332.644517,105.179104 331.933552,105.850746 C327.952146,105.552239 325.890347,105.552239 325.748154,105.850746 C325.179381,106.447761 325.179381,107.940299 325.748154,110.328358 C325.173424,110.776119 324.604652,111 324.041837,111 C323.538204,111 323.040528,110.776119 322.54881,110.328358 C322.781102,107.587111 322.781102,106.094573 322.54881,105.850746 C322.264424,105.552239 320.7003,105.552239 317.856438,105.850746 C317.325956,105.259583 317.04157,104.662568 317.00328,104.059701 C316.970473,103.543165 317.183763,103.020777 317.643149,102.492537 Z" id="Path-Copy" fill="#05DCBF" transform="translate(325.000000, 103.500000) rotate(30.000000) translate(-325.000000, -103.500000) "></path>
            </g>
        </g>
    </g>
</svg>